<mxfile host="Electron" modified="2024-03-15T09:07:04.345Z" agent="Mozilla/5.0 (Windows NT 10.0; Win64; x64) AppleWebKit/537.36 (KHTML, like Gecko) draw.io/24.0.4 Chrome/120.0.6099.109 Electron/28.1.0 Safari/537.36" etag="C8zijr2oRBorIK9zZXzR" version="24.0.4" type="device">
  <diagram id="C5RBs43oDa-KdzZeNtuy" name="Upload Pin">
    <mxGraphModel dx="1500" dy="887" grid="1" gridSize="10" guides="1" tooltips="1" connect="1" arrows="1" fold="1" page="1" pageScale="1" pageWidth="827" pageHeight="1169" math="0" shadow="0">
      <root>
        <mxCell id="WIyWlLk6GJQsqaUBKTNV-0" />
        <mxCell id="WIyWlLk6GJQsqaUBKTNV-1" parent="WIyWlLk6GJQsqaUBKTNV-0" />
        <mxCell id="z4Bw6FlXF1pi2Z6h6319-35" value="" style="group;flipV=0;flipH=0;verticalAlign=top;" vertex="1" connectable="0" parent="WIyWlLk6GJQsqaUBKTNV-1">
          <mxGeometry x="130" y="80" width="440" height="590" as="geometry" />
        </mxCell>
        <mxCell id="z4Bw6FlXF1pi2Z6h6319-23" style="edgeStyle=orthogonalEdgeStyle;rounded=1;orthogonalLoop=1;jettySize=auto;html=1;curved=0;" edge="1" parent="z4Bw6FlXF1pi2Z6h6319-35" source="WIyWlLk6GJQsqaUBKTNV-3" target="z4Bw6FlXF1pi2Z6h6319-22">
          <mxGeometry relative="1" as="geometry" />
        </mxCell>
        <mxCell id="WIyWlLk6GJQsqaUBKTNV-3" value="Start" style="rounded=1;whiteSpace=wrap;html=1;fontSize=12;glass=0;strokeWidth=1;shadow=0;shape=ellipse;perimeter=ellipsePerimeter;" parent="z4Bw6FlXF1pi2Z6h6319-35" vertex="1">
          <mxGeometry x="160" width="120" height="40" as="geometry" />
        </mxCell>
        <mxCell id="z4Bw6FlXF1pi2Z6h6319-2" style="edgeStyle=orthogonalEdgeStyle;rounded=1;orthogonalLoop=1;jettySize=auto;html=1;curved=0;" edge="1" parent="z4Bw6FlXF1pi2Z6h6319-35" source="WIyWlLk6GJQsqaUBKTNV-6" target="z4Bw6FlXF1pi2Z6h6319-0">
          <mxGeometry relative="1" as="geometry" />
        </mxCell>
        <mxCell id="z4Bw6FlXF1pi2Z6h6319-5" style="edgeStyle=orthogonalEdgeStyle;rounded=1;orthogonalLoop=1;jettySize=auto;html=1;curved=0;" edge="1" parent="z4Bw6FlXF1pi2Z6h6319-35" source="WIyWlLk6GJQsqaUBKTNV-6" target="z4Bw6FlXF1pi2Z6h6319-4">
          <mxGeometry relative="1" as="geometry" />
        </mxCell>
        <mxCell id="WIyWlLk6GJQsqaUBKTNV-6" value="Submit Form" style="rhombus;whiteSpace=wrap;html=1;shadow=0;fontFamily=Helvetica;fontSize=12;align=center;strokeWidth=1;spacing=6;spacingTop=-4;" parent="z4Bw6FlXF1pi2Z6h6319-35" vertex="1">
          <mxGeometry x="170" y="190" width="100" height="80" as="geometry" />
        </mxCell>
        <mxCell id="z4Bw6FlXF1pi2Z6h6319-29" style="edgeStyle=orthogonalEdgeStyle;rounded=1;orthogonalLoop=1;jettySize=auto;html=1;curved=0;" edge="1" parent="z4Bw6FlXF1pi2Z6h6319-35" source="z4Bw6FlXF1pi2Z6h6319-0" target="z4Bw6FlXF1pi2Z6h6319-11">
          <mxGeometry relative="1" as="geometry" />
        </mxCell>
        <mxCell id="z4Bw6FlXF1pi2Z6h6319-0" value="Send to Cloudinary" style="rounded=1;whiteSpace=wrap;html=1;fontSize=12;glass=0;strokeWidth=1;shadow=0;" vertex="1" parent="z4Bw6FlXF1pi2Z6h6319-35">
          <mxGeometry y="280" width="120" height="40" as="geometry" />
        </mxCell>
        <mxCell id="z4Bw6FlXF1pi2Z6h6319-28" style="rounded=1;orthogonalLoop=1;jettySize=auto;html=1;edgeStyle=elbowEdgeStyle;elbow=vertical;curved=0;exitX=0.5;exitY=1;exitDx=0;exitDy=0;" edge="1" parent="z4Bw6FlXF1pi2Z6h6319-35" source="z4Bw6FlXF1pi2Z6h6319-4" target="z4Bw6FlXF1pi2Z6h6319-17">
          <mxGeometry relative="1" as="geometry">
            <mxPoint x="380" y="455" as="sourcePoint" />
            <mxPoint x="220" y="625" as="targetPoint" />
            <Array as="points">
              <mxPoint x="300" y="500" />
            </Array>
          </mxGeometry>
        </mxCell>
        <mxCell id="z4Bw6FlXF1pi2Z6h6319-4" value="Reset Form" style="rounded=1;whiteSpace=wrap;html=1;fontSize=12;glass=0;strokeWidth=1;shadow=0;" vertex="1" parent="z4Bw6FlXF1pi2Z6h6319-35">
          <mxGeometry x="320" y="380" width="120" height="40" as="geometry" />
        </mxCell>
        <mxCell id="z4Bw6FlXF1pi2Z6h6319-6" value="Yes" style="text;html=1;align=center;verticalAlign=middle;whiteSpace=wrap;rounded=0;" vertex="1" parent="z4Bw6FlXF1pi2Z6h6319-35">
          <mxGeometry x="120" y="200" width="60" height="30" as="geometry" />
        </mxCell>
        <mxCell id="z4Bw6FlXF1pi2Z6h6319-7" value="No" style="text;html=1;align=center;verticalAlign=middle;whiteSpace=wrap;rounded=0;" vertex="1" parent="z4Bw6FlXF1pi2Z6h6319-35">
          <mxGeometry x="260" y="200" width="60" height="30" as="geometry" />
        </mxCell>
        <mxCell id="z4Bw6FlXF1pi2Z6h6319-14" value="" style="edgeStyle=orthogonalEdgeStyle;rounded=1;orthogonalLoop=1;jettySize=auto;html=1;curved=0;" edge="1" parent="z4Bw6FlXF1pi2Z6h6319-35" source="z4Bw6FlXF1pi2Z6h6319-11" target="z4Bw6FlXF1pi2Z6h6319-13">
          <mxGeometry relative="1" as="geometry" />
        </mxCell>
        <mxCell id="z4Bw6FlXF1pi2Z6h6319-11" value="Save path URL Database" style="rounded=1;whiteSpace=wrap;html=1;fontSize=12;glass=0;strokeWidth=1;shadow=0;" vertex="1" parent="z4Bw6FlXF1pi2Z6h6319-35">
          <mxGeometry y="380" width="120" height="40" as="geometry" />
        </mxCell>
        <mxCell id="z4Bw6FlXF1pi2Z6h6319-18" value="" style="edgeStyle=orthogonalEdgeStyle;rounded=1;orthogonalLoop=1;jettySize=auto;html=1;curved=0;" edge="1" parent="z4Bw6FlXF1pi2Z6h6319-35" source="z4Bw6FlXF1pi2Z6h6319-13" target="z4Bw6FlXF1pi2Z6h6319-17">
          <mxGeometry relative="1" as="geometry" />
        </mxCell>
        <mxCell id="z4Bw6FlXF1pi2Z6h6319-13" value="Send result path for user" style="rounded=1;whiteSpace=wrap;html=1;fontSize=12;glass=0;strokeWidth=1;shadow=0;" vertex="1" parent="z4Bw6FlXF1pi2Z6h6319-35">
          <mxGeometry y="480" width="120" height="40" as="geometry" />
        </mxCell>
        <mxCell id="z4Bw6FlXF1pi2Z6h6319-17" value="End" style="rounded=1;whiteSpace=wrap;html=1;fontSize=12;glass=0;strokeWidth=1;shadow=0;shape=ellipse;perimeter=ellipsePerimeter;" vertex="1" parent="z4Bw6FlXF1pi2Z6h6319-35">
          <mxGeometry x="160" y="550" width="120" height="40" as="geometry" />
        </mxCell>
        <mxCell id="z4Bw6FlXF1pi2Z6h6319-24" style="edgeStyle=orthogonalEdgeStyle;rounded=1;orthogonalLoop=1;jettySize=auto;html=1;curved=0;" edge="1" parent="z4Bw6FlXF1pi2Z6h6319-35" source="z4Bw6FlXF1pi2Z6h6319-22" target="WIyWlLk6GJQsqaUBKTNV-6">
          <mxGeometry relative="1" as="geometry" />
        </mxCell>
        <mxCell id="z4Bw6FlXF1pi2Z6h6319-22" value="User Upload Pin" style="shape=parallelogram;perimeter=parallelogramPerimeter;whiteSpace=wrap;html=1;fixedSize=1;" vertex="1" parent="z4Bw6FlXF1pi2Z6h6319-35">
          <mxGeometry x="160" y="80" width="120" height="60" as="geometry" />
        </mxCell>
      </root>
    </mxGraphModel>
  </diagram>
</mxfile>
